<svg width="37" height="52" viewBox="0 0 37 52" fill="none" xmlns="http://www.w3.org/2000/svg">
<rect x="1" y="1" width="34.9043" height="50.0015" rx="17.4521" stroke="#F1F1F1" stroke-width="2"/>
<path d="M15.8177 1.84195H20.9172C24.1697 1.84195 27.304 3.06116 29.7016 5.25895L32.9347 8.2226H3.93065L6.83178 5.4476C9.25107 3.1335 12.4698 1.84195 15.8177 1.84195Z" fill="#F1F1F1" stroke="#F1F1F1"/>
<rect x="15.517" y="4.78077" width="5.53548" height="0.83871" rx="0.419355" fill="white" stroke="#002C65" stroke-width="0.83871"/>
<path d="M4.19336 18.9554C4.19336 13.8559 7.10097 9.89706 8.55478 8.55508H28.1812C32.0729 11.239 32.8221 16.6069 32.7103 18.9554C32.7103 29.1027 33.0875 41.913 23.7779 45.9501C22.1874 46.6398 20.3628 47.0294 18.2841 46.9691C16.3664 46.9135 14.6747 46.5116 13.1901 45.8725C3.86619 41.8586 4.19336 29.1065 4.19336 18.9554Z" stroke="#F1F1F1" stroke-width="2"/>
<path d="M29.8582 40.9295C32.2737 37.4405 32.6539 31.6478 32.5421 29.1876L15.0969 24.1553L8.89047 16.7747H8.05176L11.4066 25.1618L29.8582 40.9295Z" stroke="#F1F1F1" stroke-linejoin="round"/>
<path d="M14.7613 36.2331L21.6387 33.8847L26 37.7428C17.68 37.6086 15.0408 36.6804 14.7613 36.2331Z" stroke="#F1F1F1" stroke-linejoin="round"/>
<path d="M11.4064 30.3621C11.6748 29.8253 13.9785 29.0761 15.2645 28.6847L18.2839 31.0331C15.8796 31.0331 11.138 30.8989 11.4064 30.3621Z" stroke="#F1F1F1" stroke-linejoin="round"/>
</svg>
